<svg width="687" height="459" viewBox="0 0 687 459" fill="none" xmlns="http://www.w3.org/2000/svg">
<path d="M47.11 332.14H30.03V391.93C30.03 392.21 34.44 396.06 39.12 399.37L28.37 412.87C26.72 412.87 24.51 412.32 23.96 411.49L23.41 410.94V411.22C16.8 405.71 11.01 399.92 11.01 391.93V332.14H0V312.86H11.02V261.34H30.03V312.86H47.11V332.14Z" fill="#276955"/>
<path d="M103.86 295.5H85.12V270.15H103.86V295.5ZM103.86 408.19H85.12V304.32H103.86V408.19Z" fill="#276955"/>
<path d="M224.53 408.73H205.52V338.75C205.52 329.38 196.15 324.42 188.99 324.42H187.61C180.72 324.42 171.36 329.1 171.08 337.92V408.72H152.07V324.14L147.66 320.56L146.83 319.73C146.28 319.45 145.73 319.18 145.45 318.63C144.9 318.08 143.79 315.05 143.79 315.05L154.81 301.82L158.12 305.13C158.39 305.41 158.95 305.68 159.5 305.96L166.11 312.3C172.45 307.89 179.89 305.69 187.6 305.69H188.98C197.25 305.69 205.23 308.72 212.4 313.96C220.12 320.57 224.53 329.39 224.53 338.76V408.74V408.73Z" fill="#276955"/>
<path d="M294.49 408.46C285.95 408.46 277.41 404.88 271.07 400.19C263.63 393.86 259.22 384.76 259.22 375.12V304.31H277.96V375.12C277.96 384.76 287.33 389.72 294.49 389.72H296.15C302.76 389.72 311.85 385.03 312.4 375.94V304.31H331.69V426.64C331.69 436.56 325.63 443.45 322.05 447.58C317.36 452.26 310.75 458.6 310.75 458.6L297.8 445.38L308.82 434.36C310.75 432.43 312.4 430.23 312.4 426.64V404.6C307.44 406.8 301.38 408.46 296.15 408.46H294.49Z" fill="#276955"/>
<path d="M422.59 261.33H441.6V392.2C441.6 391.92 442.98 393.3 444.63 394.68C444.91 395.23 445.46 395.51 446.29 396.06C446.56 396.06 446.84 396.34 447.94 397.16H452.35L439.12 413.97C430.85 406.81 422.59 400.19 422.59 391.93V261.33Z" fill="#276955"/>
<path d="M514.05 407.36C505.51 407.36 498.35 404.33 492.28 398.54C486.77 392.76 483.19 385.32 483.47 377.05V368.51C483.47 351.15 496.97 337.93 514.33 337.93H520.94C526.17 337.93 531.68 338.76 536.37 340.13V339.58C536.37 334.07 534.44 329.94 530.86 327.18H531.14C528.94 325.25 525.63 323.87 521.77 324.43L491.74 328.56L489.54 309.82L519.57 305.69C528.39 304.31 536.65 307.07 543.82 313.13C550.43 319.19 555.39 329.39 555.39 339.58V385.59C555.39 385.86 558.69 388.34 562.28 390.55L567.24 393.86L557.32 409.29C555.39 408.19 554.01 407.36 552.91 406.53C552.36 406.53 552.08 406.26 550.98 405.7C550.98 405.7 547.4 402.95 545.47 401.29H545.19C538.85 405.42 528.66 407.35 519.57 407.35H514.06L514.05 407.36ZM514.33 356.66C507.72 356.66 502.48 362.17 502.48 368.51V377.33C502.21 380.36 503.86 383.11 505.79 385.32C507.99 387.25 511.02 388.63 514.06 388.63H519.57C524.53 388.63 529.49 387.8 533.62 385.6H534.17C534.45 384.77 535 383.67 535.27 382.02C535.27 380.92 535.82 379.82 536.37 378.71V365.21L535.54 362.18C535.54 361.63 535.26 361.35 535.26 361.08V359.43C533.6 358.33 528.65 356.67 520.93 356.67H514.32L514.33 356.66Z" fill="#276955"/>
<path d="M643.53 407.36C636.37 407.36 627.27 404.33 620.94 399.92H620.66C617.9 402.4 614.05 405.7 609.36 409.01L598.61 394.96L602.74 390.83L604.12 389.73C605.5 388.35 607.43 386.7 607.43 386.97V261.34H626.44V310.11C631.95 307.08 637.74 305.7 643.52 305.7H648.2C656.74 305.7 664.46 308.45 671.62 313.69C678.23 319.2 682.64 326.36 684.57 333.8C685.67 339.86 686.5 348.4 686.5 356.66C686.5 364.92 685.67 373.74 684.57 379.8C682.64 386.69 677.96 393.85 671.62 399.64C664.73 404.87 656.46 407.36 648.2 407.36H643.52H643.53ZM648.21 388.62C655.93 388.62 663.64 382.01 665.84 375.12V375.39C666.67 369.88 667.22 362.72 667.22 356.65C667.22 350.58 666.67 343.15 665.84 337.92V338.19C663.64 331.3 655.92 324.42 648.21 324.42H643.53C636.37 324.42 629.2 331.03 626.45 337.09V376.49C629.76 382 636.92 388.62 643.53 388.62H648.21Z" fill="#276955"/>
<path d="M536.78 4.89C531.6 1.5 528.96 -0.050004 528.51 -3.96557e-06C527.86 0.039996 501.16 7.66 500.17 8.07C499.91 8.18 495.13 13.39 489.56 19.65L479.42 30.99L479.02 37.76C478.79 41.48 478.48 47.06 478.32 50.17L478.02 55.81L452.29 86.94L439.52 96.09C431 102.22 426.8 105.4 426.9 105.61C427.44 106.62 446.01 131.29 446.25 131.27C446.41 131.25 452.62 128.46 460.04 125.05L473.56 118.88L505.38 93.72L507.26 90.89C508.29 89.33 514.72 79.67 521.55 69.43L533.94 50.8L539.28 30.67C542.21 19.58 544.55 10.36 544.48 10.18C544.41 10 540.94 7.6 536.76 4.9L536.78 4.89ZM512.21 33.02L510.27 37.33L500.34 38.38L497.57 34.57C496.04 32.46 494.79 30.65 494.75 30.52C494.74 30.38 495.57 28.3 496.63 25.89L498.56 21.5L508.51 20.44L511.29 24.33C512.85 26.49 514.11 28.35 514.13 28.49C514.11 28.6 513.27 30.63 512.22 33.02H512.21Z" fill="#E9451A"/>
<path d="M341.04 29.43C322.44 26.18 306.92 23.53 306.54 23.55C306.16 23.59 291.65 28.63 274.27 34.8L242.68 46.01L217.13 82.86C203.07 103.12 191.56 119.8 191.57 119.93C191.58 120.04 200.03 123.74 210.34 128.11L229.12 136.1L318.7 146.4L378 126.32L408.73 103.36C425.64 90.73 439.5 80.26 439.54 80.12C439.58 79.95 425.03 69.82 407.25 57.59L374.87 35.31L341.05 29.44L341.04 29.43Z" fill="#E9451A"/>
<path d="M210.15 137.54C198.94 131.62 189.66 126.78 189.53 126.79C189.23 126.82 187.61 125.33 211.12 146.88L232.13 166.12L277.43 176.88C302.35 182.8 323 187.61 323.3 187.6C323.6 187.57 337.06 182.42 353.23 176.13L382.63 164.72L390.18 159.19C394.32 156.15 397.75 153.65 397.81 153.65C397.87 153.65 398.89 162.84 400.09 174.09L402.26 194.54L394.65 207.14C390.43 214.07 387.07 219.79 387.13 219.84C387.25 219.94 426.6 219.81 427.68 219.69C428.46 219.61 428.8 219 436.64 203.66L444.8 187.72L440.86 150.58L429.06 132.19C419.51 117.34 417.15 113.84 416.79 113.99C416.53 114.07 408.7 119.83 399.37 126.75C390.04 133.68 382.12 139.52 381.76 139.73C381.4 139.94 367.52 145.24 350.91 151.54L320.73 162.98L306.45 160.67C298.62 159.4 278.32 156.11 261.38 153.34L230.54 148.35L210.18 137.54H210.15Z" fill="#E9451A"/>
<path d="M207.79 155.55C198.76 145.05 191.29 136.46 191.18 136.47C190.88 136.5 157.88 212.31 158.05 212.62C158.19 212.88 192.79 219.74 193.59 219.65C193.91 219.62 223.13 176.79 223.89 175.21C224.14 174.72 222.42 172.6 207.79 155.55Z" fill="#E9451A"/>
</svg>
